<mxfile host="app.diagrams.net" agent="Mozilla/5.0 (Windows NT 10.0; Win64; x64) AppleWebKit/537.36 (KHTML, like Gecko) Chrome/137.0.0.0 Safari/537.36" version="27.1.6">
  <diagram name="Page-1" id="vxtLMgFrVTvMRA_lDy_x">
    <mxGraphModel dx="1042" dy="562" grid="1" gridSize="10" guides="1" tooltips="1" connect="1" arrows="1" fold="1" page="1" pageScale="1" pageWidth="850" pageHeight="1100" math="0" shadow="0">
      <root>
        <mxCell id="0" />
        <mxCell id="1" parent="0" />
        <mxCell id="Qyx9r7CeZPpTyZQv4wLi-4" value="" style="edgeStyle=orthogonalEdgeStyle;rounded=0;orthogonalLoop=1;jettySize=auto;html=1;" edge="1" parent="1" source="Qyx9r7CeZPpTyZQv4wLi-1" target="Qyx9r7CeZPpTyZQv4wLi-2">
          <mxGeometry relative="1" as="geometry" />
        </mxCell>
        <mxCell id="Qyx9r7CeZPpTyZQv4wLi-1" value="Input Text Sequence" style="rounded=1;whiteSpace=wrap;html=1;fillColor=#f5f5f5;fontColor=#333333;strokeColor=#666666;" vertex="1" parent="1">
          <mxGeometry x="40" y="130" width="120" height="60" as="geometry" />
        </mxCell>
        <mxCell id="Qyx9r7CeZPpTyZQv4wLi-5" value="" style="edgeStyle=orthogonalEdgeStyle;rounded=0;orthogonalLoop=1;jettySize=auto;html=1;" edge="1" parent="1" source="Qyx9r7CeZPpTyZQv4wLi-2" target="Qyx9r7CeZPpTyZQv4wLi-3">
          <mxGeometry relative="1" as="geometry" />
        </mxCell>
        <mxCell id="Qyx9r7CeZPpTyZQv4wLi-2" value="Transformer Encoder (6 Layers)" style="rounded=1;whiteSpace=wrap;html=1;fillColor=#dae8fc;strokeColor=#6c8ebf;" vertex="1" parent="1">
          <mxGeometry x="220" y="130" width="120" height="60" as="geometry" />
        </mxCell>
        <mxCell id="Qyx9r7CeZPpTyZQv4wLi-3" value="384-Dimensional Vector&lt;div&gt;(output embedding)&lt;/div&gt;" style="rounded=1;whiteSpace=wrap;html=1;fillColor=#f5f5f5;fontColor=#333333;strokeColor=#666666;" vertex="1" parent="1">
          <mxGeometry x="390" y="130" width="150" height="60" as="geometry" />
        </mxCell>
      </root>
    </mxGraphModel>
  </diagram>
</mxfile>
